<svg enable-background="new 0 0 160.7 159.8" height="180px">
								<path d="m153.2 114.5c1.2 0 2.1 1 2.1 2.2s-1 2.2-2.1 2.2c-1.2 0-2.1-1-2.1-2.2-0.1-1.2 0.9-2.2 2.1-2.2z"></path>
								<path d="m116.4 114.5c1.2 0 2.1 1 2.1 2.2s-1 2.2-2.1 2.2c-1.2 0-2.1-1-2.1-2.2s0.9-2.2 2.1-2.2z"></path>
								<path d="m134.8 114.5c1.2 0 2.1 1 2.1 2.2s-1 2.2-2.1 2.2c-1.2 0-2.1-1-2.1-2.2s0.9-2.2 2.1-2.2z"></path>
								<path d="m135.1 96.9c1.2 0 2.1 1 2.1 2.2s-1 2.2-2.1 2.2c-1.2 0-2.1-1-2.1-2.2s0.9-2.2 2.1-2.2z"></path>
								<path d="m153.5 96.9c1.2 0 2.1 1 2.1 2.2s-1 2.2-2.1 2.2c-1.2 0-2.1-1-2.1-2.2-0.1-1.2 0.9-2.2 2.1-2.2z"></path>
								<path d="m98.3 96.9c1.2 0 2.1 1 2.1 2.2s-1 2.2-2.1 2.2c-1.2 0-2.1-1-2.1-2.2s0.9-2.2 2.1-2.2z"></path>
								<ellipse cx="116.7" cy="99.1" rx="2.1" ry="2.2"></ellipse>
								<path d="m153.2 149.8c1.2 0 2.1 1 2.1 2.2s-1 2.2-2.1 2.2c-1.2 0-2.1-1-2.1-2.2-0.1-1.3 0.9-2.2 2.1-2.2z"></path>
								<path d="m135.1 132.2c1.2 0 2.1 1 2.1 2.2s-1 2.2-2.1 2.2c-1.2 0-2.1-1-2.1-2.2 0-1.3 0.9-2.2 2.1-2.2z"></path>
								<path d="m153.5 132.2c1.2 0 2.1 1 2.1 2.2s-1 2.2-2.1 2.2c-1.2 0-2.1-1-2.1-2.2-0.1-1.3 0.9-2.2 2.1-2.2z"></path>
								<path d="m80.2 79.3c1.2 0 2.1 1 2.1 2.2s-1 2.2-2.1 2.2c-1.2 0-2.1-1-2.1-2.2s1-2.2 2.1-2.2z"></path>
								<path d="m117 79.3c1.2 0 2.1 1 2.1 2.2s-1 2.2-2.1 2.2c-1.2 0-2.1-1-2.1-2.2s0.9-2.2 2.1-2.2z"></path>
								<path d="m98.6 79.3c1.2 0 2.1 1 2.1 2.2s-1 2.2-2.1 2.2c-1.2 0-2.1-1-2.1-2.2s0.9-2.2 2.1-2.2z"></path>
								<path d="m135.4 79.3c1.2 0 2.1 1 2.1 2.2s-1 2.2-2.1 2.2c-1.2 0-2.1-1-2.1-2.2s0.9-2.2 2.1-2.2z"></path>
								<path d="m153.8 79.3c1.2 0 2.1 1 2.1 2.2s-1 2.2-2.1 2.2c-1.2 0-2.1-1-2.1-2.2s0.9-2.2 2.1-2.2z"></path>
								<path d="m80.6 61.7c1.2 0 2.1 1 2.1 2.2s-1 2.2-2.1 2.2c-1.2 0-2.1-1-2.1-2.2-0.1-1.2 0.9-2.2 2.1-2.2z"></path>
								<ellipse cx="98.9" cy="63.9" rx="2.1" ry="2.2"></ellipse>
								<path d="m117.3 61.7c1.2 0 2.1 1 2.1 2.2s-1 2.2-2.1 2.2c-1.2 0-2.1-1-2.1-2.2s0.9-2.2 2.1-2.2z"></path>
								<ellipse cx="62.2" cy="63.9" rx="2.1" ry="2.2"></ellipse>
								<ellipse cx="154.1" cy="63.9" rx="2.1" ry="2.2"></ellipse>
								<path d="m135.7 61.7c1.2 0 2.1 1 2.1 2.2s-1 2.2-2.1 2.2c-1.2 0-2.1-1-2.1-2.2s0.9-2.2 2.1-2.2z"></path>
								<path d="m154.4 44.1c1.2 0 2.1 1 2.1 2.2s-1 2.2-2.1 2.2c-1.2 0-2.1-1-2.1-2.2s0.9-2.2 2.1-2.2z"></path>
								<path d="m80.9 44.1c1.2 0 2.1 1 2.1 2.2s-1 2.2-2.1 2.2c-1.2 0-2.1-1-2.1-2.2-0.1-1.2 0.9-2.2 2.1-2.2z"></path>
								<path d="m44.1 44.1c1.2 0 2.1 1 2.1 2.2s-1 2.2-2.1 2.2c-1.2 0-2.1-1-2.1-2.2-0.1-1.2 0.9-2.2 2.1-2.2z"></path>
								<path d="m99.2 44.1c1.2 0 2.1 1 2.1 2.2s-1 2.2-2.1 2.2c-1.2 0-2.1-1-2.1-2.2s1-2.2 2.1-2.2z"></path>
								<ellipse cx="117.6" cy="46.3" rx="2.1" ry="2.2"></ellipse>
								<path d="m136 44.1c1.2 0 2.1 1 2.1 2.2s-1 2.2-2.1 2.2c-1.2 0-2.1-1-2.1-2.2s0.9-2.2 2.1-2.2z"></path>
								<path d="m62.5 44.1c1.2 0 2.1 1 2.1 2.2s-1 2.2-2.1 2.2c-1.2 0-2.1-1-2.1-2.2-0.1-1.2 0.9-2.2 2.1-2.2z"></path>
								<path d="m154.7 26.5c1.2 0 2.1 1 2.1 2.2s-1 2.2-2.1 2.2c-1.2 0-2.1-1-2.1-2.2s0.9-2.2 2.1-2.2z"></path>
								<path d="m62.8 26.5c1.2 0 2.1 1 2.1 2.2s-1 2.2-2.1 2.2c-1.2 0-2.1-1-2.1-2.2-0.1-1.2 0.9-2.2 2.1-2.2z"></path>
								<ellipse cx="136.3" cy="28.6" rx="2.1" ry="2.2"></ellipse>
								<path d="m99.6 26.5c1.2 0 2.1 1 2.1 2.2s-1 2.2-2.1 2.2c-1.2 0-2.1-1-2.1-2.2-0.1-1.2 0.9-2.2 2.1-2.2z"></path>
								<path d="m117.9 26.5c1.2 0 2.1 1 2.1 2.2s-1 2.2-2.1 2.2c-1.2 0-2.1-1-2.1-2.2s1-2.2 2.1-2.2z"></path>
								<path d="m81.2 26.5c1.2 0 2.1 1 2.1 2.2s-1 2.2-2.1 2.2c-1.2 0-2.1-1-2.1-2.2-0.1-1.2 0.9-2.2 2.1-2.2z"></path>
								<path d="m26 26.5c1.2 0 2.1 1 2.1 2.2s-1 2.2-2.1 2.2c-1.2 0-2.1-1-2.1-2.2s0.9-2.2 2.1-2.2z"></path>
								<ellipse cx="44.4" cy="28.6" rx="2.1" ry="2.2"></ellipse>
								<path d="m136.6 13.2c-1.2 0-2.1-1-2.1-2.2s1-2.2 2.1-2.2c1.2 0 2.1 1 2.1 2.2 0.1 1.2-0.9 2.2-2.1 2.2z"></path>
								<path d="m155 13.2c-1.2 0-2.1-1-2.1-2.2s1-2.2 2.1-2.2c1.2 0 2.1 1 2.1 2.2 0.1 1.2-0.9 2.2-2.1 2.2z"></path>
								<path d="m26.3 13.2c-1.2 0-2.1-1-2.1-2.2s1-2.2 2.1-2.2c1.2 0 2.1 1 2.1 2.2s-0.9 2.2-2.1 2.2z"></path>
								<path d="m81.5 13.2c-1.2 0-2.1-1-2.1-2.2s1-2.2 2.1-2.2c1.2 0 2.1 1 2.1 2.2s-0.9 2.2-2.1 2.2z"></path>
								<path d="m63.1 13.2c-1.2 0-2.1-1-2.1-2.2s1-2.2 2.1-2.2c1.2 0 2.1 1 2.1 2.2s-0.9 2.2-2.1 2.2z"></path>
								<path d="m44.7 13.2c-1.2 0-2.1-1-2.1-2.2s1-2.2 2.1-2.2c1.2 0 2.1 1 2.1 2.2s-0.9 2.2-2.1 2.2z"></path>
								<path d="m118.2 13.2c-1.2 0-2.1-1-2.1-2.2s1-2.2 2.1-2.2c1.2 0 2.1 1 2.1 2.2 0.1 1.2-0.9 2.2-2.1 2.2z"></path>
								<path d="m7.9 13.2c-1.2 0-2.1-1-2.1-2.2s1-2.2 2.1-2.2c1.2 0 2.1 1 2.1 2.2 0.1 1.2-0.9 2.2-2.1 2.2z"></path>
								<path d="m99.9 13.2c-1.2 0-2.1-1-2.1-2.2s1-2.2 2.1-2.2c1.2 0 2.1 1 2.1 2.2s-1 2.2-2.1 2.2z"></path>
							</svg>