<svg xmlns="http://www.w3.org/2000/svg" version="1.0" width="544.000000pt" height="496.000000pt" viewBox="0 0 544.000000 496.000000" preserveAspectRatio="xMidYMid meet">

<g transform="translate(0.000000,496.000000) scale(0.100000,-0.100000)" fill="#000000" stroke="none">

<path d="M3095 4045 c0 -51 3 -91 8 -88 4 2 7 42 7 88 0 46 -3 86 -7 88 -5 3 -8 -37 -8 -88z"/>
<path d="M2382 4035 c-2 -60 -2 -61 48 -110 46 -45 50 -53 50 -97 0 -36 -4 -48 -15 -48 -11 0 -15 12 -15 50 0 28 -3 50 -7 50 -5 0 -6 -22 -5 -50 4 -53 -13 -71 -21 -22 l-4 27 -2 -27 c-2 -42 -31 -37 -31 5 0 26 -9 41 -42 72 l-43 40 38 -40 c27 -30 37 -50 37 -73 0 -37 -16 -43 -23 -9 l-4 22 -2 -22 c0 -13 -3 -23 -5 -23 -3 0 -26 22 -53 48 -30 30 -34 33 -10 7 20 -22 37 -44 37 -48 0 -3 -71 -8 -157 -9 l-158 -3 100 -34 c92 -32 110 -34 220 -34 103 0 131 4 202 27 85 28 113 46 69 46 -21 0 -25 5 -29 38 l-4 37 -1 -37 c-2 -35 -4 -38 -32 -38 -29 0 -30 1 -30 48 0 44 -4 52 -50 97 -47 46 -49 51 -53 109 l-3 61 -2 -60z"/>
<path d="M2992 4010 c-2 -53 -5 -59 -52 -105 -43 -42 -50 -55 -50 -87 0 -35 -2 -38 -27 -38 -27 -1 -27 -1 -8 -16 45 -34 156 -58 270 -58 92 -1 125 4 205 27 52 16 99 33 104 38 6 5 -49 9 -142 9 -112 0 -152 3 -152 12 0 7 19 33 43 58 l42 45 -47 -45 c-27 -24 -48 -50 -48 -57 0 -7 -4 -13 -10 -13 -5 0 -10 10 -10 23 0 14 20 43 55 77 30 30 55 57 55 61 0 3 -27 -21 -60 -54 -39 -39 -60 -69 -60 -84 0 -13 -4 -23 -10 -23 -5 0 -10 16 -10 36 0 27 7 42 32 65 18 16 28 29 22 29 -6 0 -22 -13 -37 -28 -19 -20 -27 -39 -27 -65 0 -26 -4 -37 -15 -37 -11 0 -15 11 -15 37 0 31 8 46 53 93 l52 55 -57 -55 c-51 -47 -58 -59 -58 -92 0 -35 -2 -38 -29 -38 -25 0 -30 5 -34 28 l-4 27 -2 -27 c-1 -24 -5 -28 -31 -28 -28 0 -30 3 -30 37 0 31 8 46 51 89 49 50 50 52 46 105 l-3 54 -2 -55z"/><path xmlns="http://www.w3.org/2000/svg" style="fill:#79DAE8" d="M2355 3910 c27 -27 51 -50 54 -50 3 0 -17 23 -44 50 -27 28 -51 50 -54 50 -3 0 17 -22 44 -50z"/>
<path style="fill:#2155CD" d="M2905 3908 l-50 -53 53 50 c48 46 57 55 49 55 -1 0 -25 -24 -52 -52z"/>
<path style="fill:#2155CD" d="M2582 3905 c29 -31 38 -50 41 -85 l4 -45 1 45 c2 42 -2 49 -40 85 l-43 40 37 -40z"/>
<path style="fill:#2155CD" d="M3032 3907 c-18 -18 -32 -36 -32 -41 0 -4 16 9 35 30 19 20 34 39 32 40 -2 2 -18 -11 -35 -29z"/>
<path style="fill:#2155CD" d="M2490 3917 c0 -2 15 -16 33 -33 l32 -29 -29 33 c-28 30 -36 37 -36 29z"/>
<path style="fill:#2155CD" d="M2692 3900 c0 -14 2 -19 5 -12 2 6 2 18 0 25 -3 6 -5 1 -5 -13z"/>
<path style="fill:#2155CD" d="M2405 3900 c3 -5 8 -10 11 -10 2 0 4 5 4 10 0 6 -5 10 -11 10 -5 0 -7 -4 -4 -10z"/>
<path style="fill:#2155CD" d="M2843 3891 c-19 -16 -23 -28 -21 -68 l1 -48 4 45 c3 28 12 54 25 68 26 27 21 28 -9 3z"/>
<path style="fill:#2155CD" d="M2301 3855 c13 -13 28 -25 33 -25 5 0 -1 11 -14 25 -13 14 -28 25 -33 25 -5 0 1 -11 14 -25z"/>
<path style="fill:#2155CD" d="M2692 3845 c0 -16 2 -22 5 -12 2 9 2 23 0 30 -3 6 -5 -1 -5 -18z"/>
<path style="fill:#2155CD" d="M1232 3764 l-22 -15 0 -913 0 -913 302 -6 c390 -9 2046 -9 2436 0 l302 6 0 911 c0 556 -4 917 -10 926 -8 13 -63 15 -375 18 l-365 3 0 -23 c0 -13 7 -57 16 -98 15 -71 23 -392 11 -460 -46 -273 -113 -454 -235 -639 -66 -101 -212 -252 -301 -311 -77 -52 -208 -118 -248 -126 -38 -8 -160 43 -262 110 -87 56 -225 187 -290 275 -194 262 -294 609 -277 959 5 111 4 132 -8 132 -8 0 -30 18 -50 41 -19 23 -40 38 -46 34 -6 -4 9 -25 40 -54 47 -44 62 -71 41 -71 -5 0 -19 12 -30 28 -20 26 -22 26 -36 8 -12 -16 -24 -18 -95 -14 -58 3 -80 1 -80 -7 0 -9 20 -11 71 -7 l70 5 40 -39 c51 -49 77 -92 33 -54 -16 14 -36 33 -44 42 -12 13 -36 17 -124 19 -78 2 -111 -1 -114 -9 -3 -9 26 -12 105 -12 l109 0 35 -37 c52 -56 68 -82 29 -48 -19 17 -41 38 -49 47 -21 22 -176 29 -176 8 0 -10 18 -13 76 -11 l75 2 48 -51 c50 -53 56 -83 8 -38 -23 22 -39 26 -105 30 -66 4 -77 3 -75 -10 2 -12 17 -15 72 -13 67 2 69 2 107 -35 22 -21 39 -43 39 -48 0 -6 -17 6 -37 26 l-38 37 -105 2 c-82 1 -105 -1 -105 -12 0 -10 22 -12 100 -10 l100 2 50 -50 c58 -60 50 -69 -10 -12 -39 38 -42 40 -115 42 -61 2 -76 -1 -78 -13 -3 -13 8 -15 68 -10 l71 5 45 -44 c25 -24 50 -53 55 -64 6 -11 -13 4 -40 33 -37 39 -53 49 -57 39 -3 -9 14 -33 45 -62 85 -80 82 -81 -196 -75 -107 2 -133 -1 -133 -11 0 -11 35 -13 190 -11 136 3 190 0 190 -8 0 -8 -64 -11 -227 -9 -202 1 -228 -1 -231 -15 -3 -13 4 -15 41 -10 43 6 45 5 40 -17 l-4 -24 203 2 c112 1 195 -1 185 -4 -9 -2 -15 -8 -12 -13 3 -4 -19 -30 -48 -57 -60 -55 -80 -89 -46 -78 15 5 19 4 14 -5 -5 -8 -32 -11 -84 -8 -74 3 -76 2 -74 -20 2 -19 -1 -21 -22 -16 -20 5 -25 2 -25 -14 0 -37 -24 -44 -132 -42 -131 3 -128 4 -128 -22 0 -12 -2 -19 -5 -17 -2 3 -8 218 -11 477 l-7 472 306 0 307 0 0 -27 0 -28 -20 25 c-17 22 -19 23 -25 7 -5 -11 1 -24 16 -37 13 -10 27 -19 30 -20 3 0 9 24 12 53 3 28 9 67 13 85 l7 32 -350 0 c-299 0 -352 -2 -371 -16z m2916 -596 c-1 -288 -3 -495 -5 -461 -3 42 -8 63 -18 67 -8 3 -15 1 -15 -4 0 -6 -7 -10 -15 -10 -8 0 -25 -12 -39 -26 -19 -21 -30 -25 -51 -20 -24 6 -25 5 -15 -15 16 -28 5 -36 -20 -14 -11 10 -20 13 -20 7 0 -6 5 -14 10 -17 6 -3 10 -13 10 -21 0 -17 -26 -6 -54 22 -21 20 -21 64 -1 64 8 0 15 -8 15 -17 0 -12 9 -7 30 18 20 22 27 35 18 38 -6 2 -14 -1 -16 -7 -5 -17 -39 -15 -46 3 -3 8 -13 15 -21 15 -12 0 -15 6 -11 23 3 12 3 16 0 10 -6 -14 -25 -18 -23 -5 4 24 -3 34 -20 29 -15 -3 -21 1 -23 16 -3 20 -8 22 -83 19 -69 -2 -77 -1 -58 10 l22 13 -24 20 c-58 47 -127 119 -97 101 7 -4 12 -1 12 8 0 13 25 15 180 13 150 -2 180 0 178 12 -2 11 -32 14 -158 12 -85 -1 -168 3 -185 8 -20 6 47 8 198 7 184 -1 227 2 225 12 -2 11 -49 14 -223 15 l-220 1 183 3 c135 3 182 7 182 16 0 9 -45 12 -182 12 l-183 0 2 25 c2 15 21 42 49 67 35 33 42 44 30 49 -10 4 -26 -7 -47 -30 -17 -20 -34 -34 -37 -31 -3 3 14 26 39 51 l44 45 72 -3 c43 -2 74 1 75 7 2 6 -30 11 -76 13 -77 3 -80 2 -113 -30 -18 -17 -33 -27 -33 -22 0 6 15 25 34 43 l34 33 101 -4 c78 -3 101 -1 101 9 0 10 -26 13 -105 13 -102 0 -105 -1 -140 -31 -44 -39 -46 -24 -2 18 28 28 40 32 99 35 36 2 64 0 61 -4 -5 -9 11 -11 20 -2 3 3 4 11 1 18 -3 8 -29 10 -82 8 -66 -3 -81 -8 -104 -30 -50 -46 -38 -18 14 37 l51 53 74 -4 c62 -4 73 -3 71 10 -2 12 -17 15 -78 13 -71 -2 -76 -4 -117 -42 -49 -45 -68 -52 -32 -12 70 80 58 75 171 72 75 -2 103 0 103 9 0 7 -3 12 -7 12 -5 0 -52 0 -105 0 l-98 0 -40 -40 c-56 -55 -64 -49 -13 10 l43 50 78 0 c58 0 77 3 77 13 0 11 -17 13 -77 9 -73 -4 -80 -7 -115 -40 -21 -20 -41 -32 -45 -28 -5 4 7 21 25 37 17 16 32 33 32 39 0 18 -21 10 -45 -17 -18 -21 -24 -24 -25 -12 0 9 20 35 45 58 25 23 45 46 45 51 0 17 -28 11 -35 -7 -7 -22 -65 -69 -65 -54 0 6 9 19 20 28 27 23 25 33 -5 33 -14 0 -25 5 -25 10 0 6 110 10 310 10 l310 0 -2 -522z m-2278 371 c12 -16 20 -32 18 -34 -5 -5 -68 48 -68 58 0 18 31 4 50 -24z m12 -470 c7 -5 -65 -9 -169 -9 -101 0 -184 4 -188 9 -7 12 338 12 357 0z m1699 -96 c13 -16 12 -17 -3 -4 -10 7 -18 15 -18 17 0 8 8 3 21 -13z m40 -40 c13 -16 12 -17 -3 -4 -17 13 -22 21 -14 21 2 0 10 -8 17 -17z m-1921 -87 c0 -2 -7 -6 -15 -10 -8 -3 -15 -1 -15 4 0 6 7 10 15 10 8 0 15 -2 15 -4z m2194 -207 c16 -18 15 -50 -3 -68 -26 -26 -46 -26 -70 -2 -19 19 -19 77 0 65 5 -3 9 -1 9 4 0 8 56 10 64 1z"/>
<path style="fill:#2155CD" d="M3843 2616 c-27 -28 -29 -36 -8 -36 8 0 15 6 15 14 0 8 5 16 12 18 6 2 9 9 7 16 -2 7 -13 2 -26 -12z"/>
<path xmlns="http://www.w3.org/2000/svg" style="fill:#2155CD" d="M2680 3630 c-60 -33 -182 -68 -276 -79 -89 -9 -178 -4 -274 18 -24 5 -47 8 -50 5 -3 -3 -5 -87 -5 -187 0 -194 11 -269 62 -432 88 -281 295 -536 522 -644 l63 -30 54 24 c187 83 377 285 480 511 40 89 86 238 105 344 13 71 20 402 9 413 -3 3 -37 -1 -75 -9 -160 -34 -357 -12 -504 56 -35 17 -66 30 -70 30 -3 -1 -22 -10 -41 -20z m166 -242 c61 -42 92 -100 101 -191 3 -37 9 -67 14 -67 4 0 15 -7 23 -16 22 -22 24 -360 2 -390 -13 -18 -30 -19 -251 -22 -202 -3 -240 -1 -261 13 -24 15 -24 16 -24 203 0 194 3 212 42 212 15 0 18 9 18 53 0 71 14 115 51 160 46 55 92 76 170 77 59 0 72 -4 115 -32z"/>
<path xmlns="http://www.w3.org/2000/svg" style="fill:#2155CD" d="M2660 3343 c-55 -29 -80 -75 -80 -149 l0 -64 150 0 150 0 0 56 c0 67 -21 116 -63 146 -41 29 -112 34 -157 11z"/>
<path d="M2697 2947 c-3 -7 -2 -40 2 -72 5 -46 10 -61 24 -63 14 -3 17 4 17 37 0 23 5 50 12 60 9 15 9 23 -1 35 -16 19 -47 21 -54 3z"/>












































</g>
</svg>
